<svg width="200" height="200" viewBox="0 0 200 200" fill="none" xmlns="http://www.w3.org/2000/svg">
<path d="M49.9439 108.226C49.9439 110.719 49.5179 113.005 48.6659 115.084C47.8139 117.162 46.5359 118.824 45.0448 120.279C43.5538 121.734 41.8498 122.773 39.7197 123.604C37.8027 124.435 35.6726 124.643 33.5426 124.643C31.4126 124.643 29.2825 124.227 27.3655 123.604C25.4484 122.773 23.5314 121.734 22.0404 120.279C20.5493 118.824 19.2713 117.162 18.4193 115.084C17.5673 113.005 17.1413 110.719 17.1413 108.226V65H5V108.433C5 113.837 6.27803 118.616 8.62108 122.773C10.9641 126.929 14.3722 130.046 18.6323 132.124C22.8924 134.41 27.7915 135.449 33.5426 135.449C39.0807 135.449 44.1928 134.41 48.4529 132.124C52.713 129.838 56.1211 126.721 58.4641 122.773C60.8072 118.616 62.0852 114.044 62.0852 108.433V65H50.157V108.226H49.9439Z" fill="#161616"/>
<path d="M90.2018 65L67.8363 134.203H79.9776L84.8767 119.24H112.78L117.679 134.203H129.821L107.455 65H90.2018ZM88.2847 108.433L98.722 76.222L109.159 108.433H88.2847Z" fill="#161616"/>
<path d="M195 65H180.516L163.901 99.4974L147.287 65H132.803L149.417 99.4974L132.803 133.995H147.287L163.901 99.4974L180.516 133.995H195L178.386 99.4974L195 65Z" fill="#0060AB"/>
</svg>
